<svg xmlns="http://www.w3.org/2000/svg" id="Grupo_6564" data-name="Grupo 6564" width="300.415" height="53.582" viewBox="0 0 300.415 53.582"><g id="Grupo_6558" data-name="Grupo 6558" transform="translate(0 0)"><path id="Trazado_14812" data-name="Trazado 14812" d="M111.565,235.567l-15.38-8.52L80.9,235.677l15.289,8.175Z" transform="translate(-73.093 -219.092)" fill="#2f8ed0" fill-rule="evenodd"></path><path id="Trazado_14813" data-name="Trazado 14813" d="M62.872,268.473l5.515,2.442.006-21-5.521,3.144Z" transform="translate(-62.871 -232.053)" fill="#92989c" fill-rule="evenodd"></path><path id="Trazado_14814" data-name="Trazado 14814" d="M80.959,257.783v-5.017L96,260.8v5.023Z" transform="translate(-73.124 -233.671)" fill="#2f8ed0" fill-rule="evenodd"></path><path id="Trazado_14815" data-name="Trazado 14815" d="M62.872,221.11l21.973-12.429v6.073L62.872,227.2Z" transform="translate(-62.871 -208.681)" fill="#92989c" fill-rule="evenodd"></path><path id="Trazado_14816" data-name="Trazado 14816" d="M141.062,220.952l-22.068-12.18v6.066l22.068,12.18Z" transform="translate(-94.684 -208.733)" fill="#92989c" fill-rule="evenodd"></path><path id="Trazado_14817" data-name="Trazado 14817" d="M80.9,272.772v-5.017l15.063,8.05v4.973Z" transform="translate(-73.093 -242.167)" fill="#2f8ed0" fill-rule="evenodd"></path><path id="Trazado_14818" data-name="Trazado 14818" d="M131.908,272.475v-5.033l-15.2,8.164v5.015Z" transform="translate(-93.386 -241.99)" fill="#2f8ed0" fill-rule="evenodd"></path><path id="Trazado_14819" data-name="Trazado 14819" d="M157.073,264.028l5.569-3V246.2l-5.578-2.823Z" transform="translate(-116.264 -228.349)" fill="#92989c" fill-rule="evenodd"></path><path id="Trazado_14820" data-name="Trazado 14820" d="M62.871,297.332l21.973,11.743V303L62.871,291.265Z" transform="translate(-62.871 -255.493)" fill="#92989c" fill-rule="evenodd"></path><path id="Trazado_14821" data-name="Trazado 14821" d="M141.062,296.7l-22.068,11.848v-6.073l22.068-11.848Z" transform="translate(-94.684 -255.132)" fill="#92989c" fill-rule="evenodd"></path><path id="Trazado_14822" data-name="Trazado 14822" d="M131.89,257.488v-5.033L116.7,260.609v5.033Z" transform="translate(-93.386 -233.494)" fill="#2f8ed0" fill-rule="evenodd"></path><path id="Trazado_14823" data-name="Trazado 14823" d="M80.9,287.605v-5.017l15.063,8.086v4.988Z" transform="translate(-73.093 -250.575)" fill="#2f8ed0" fill-rule="evenodd"></path><path id="Trazado_14824" data-name="Trazado 14824" d="M131.91,287.465v-5.033L116.7,290.586v4.988Z" transform="translate(-93.386 -250.487)" fill="#2f8ed0" fill-rule="evenodd"></path></g><g id="Grupo_6563" data-name="Grupo 6563" transform="translate(57.912 12.389)"><g id="Grupo_6560" data-name="Grupo 6560" transform="translate(104.697 0)"><g id="Grupo_6559" data-name="Grupo 6559"><path id="Trazado_14825" data-name="Trazado 14825" d="M454.983,237.283v28.773h-6.558l-3.892-13.081v13.081h-6.256V237.283h6.256l4.195,12.956V237.283Z" transform="translate(-438.277 -237.283)" fill="#2f8ed0"></path><path id="Trazado_14826" data-name="Trazado 14826" d="M499.269,260.915h-9.3v5.1a5.67,5.67,0,0,0,.231,2.062.9.9,0,0,0,.889.462,1.078,1.078,0,0,0,1.093-.613,6.709,6.709,0,0,0,.275-2.372v-3.11h6.807v1.742a15.606,15.606,0,0,1-.275,3.359,6.828,6.828,0,0,1-1.288,2.5,6.271,6.271,0,0,1-2.568,2,9.941,9.941,0,0,1-3.9.667,11.319,11.319,0,0,1-4.017-.658,6.422,6.422,0,0,1-2.71-1.8,6.526,6.526,0,0,1-1.342-2.524,16.306,16.306,0,0,1-.373-4.008v-6.878a11.709,11.709,0,0,1,.836-4.879,5.733,5.733,0,0,1,2.737-2.737,9.656,9.656,0,0,1,4.372-.951,9.783,9.783,0,0,1,4.985,1.146,6.309,6.309,0,0,1,2.755,3.039,14.25,14.25,0,0,1,.79,5.323Zm-7.2-3.839v-1.724a8.691,8.691,0,0,0-.2-2.364.773.773,0,0,0-.8-.533q-.747,0-.924.453a9.423,9.423,0,0,0-.178,2.444v1.724Z" transform="translate(-463.511 -243.516)" fill="#2f8ed0"></path><path id="Trazado_14827" data-name="Trazado 14827" d="M532.282,242v3.714h1.937v3.733h-1.937v12.618a6.789,6.789,0,0,0,.24,2.595q.24.267,2,.266v3.8h-2.9a20.7,20.7,0,0,1-3.5-.2,3.732,3.732,0,0,1-1.848-.943,3.125,3.125,0,0,1-1-1.688,29.935,29.935,0,0,1-.2-4.47V249.449h-1.546v-3.733h1.546V242Z" transform="translate(-486.607 -239.958)" fill="#2f8ed0"></path><path id="Trazado_14828" data-name="Trazado 14828" d="M573.245,249.263l-2.865,23.584h-7.794q-.636-4.321-1.488-11.392-.292,3.11-.807,6.274l-.789,5.118h-7.811l-3.044-23.584h6.188q.071.925,1.569,13.508.118-1.3,1.613-13.508h5.945l1.453,13.508a123.577,123.577,0,0,1,1.647-13.508Z" transform="translate(-500.84 -244.074)" fill="#2f8ed0"></path><path id="Trazado_14829" data-name="Trazado 14829" d="M624.067,256.988v5.776a24.374,24.374,0,0,1-.32,4.665,6.543,6.543,0,0,1-1.369,2.772,6.179,6.179,0,0,1-2.692,1.9,10.775,10.775,0,0,1-3.777.613,13.471,13.471,0,0,1-4.035-.525,5.5,5.5,0,0,1-2.568-1.581,6.252,6.252,0,0,1-1.306-2.56,19.24,19.24,0,0,1-.391-4.505V257.5a14.783,14.783,0,0,1,.711-5.136,5.909,5.909,0,0,1,2.559-2.968,9.008,9.008,0,0,1,4.727-1.12,10.8,10.8,0,0,1,4.15.72,6.506,6.506,0,0,1,3.963,4.257A14.811,14.811,0,0,1,624.067,256.988Zm-7.18-1.777a7.838,7.838,0,0,0-.2-2.284.807.807,0,0,0-.836-.471.841.841,0,0,0-.853.471,7.2,7.2,0,0,0-.214,2.284v10.645a6.885,6.885,0,0,0,.214,2.178.971.971,0,0,0,1.679.044,6.033,6.033,0,0,0,.2-1.991Z" transform="translate(-534.262 -243.516)" fill="#2f8ed0"></path><path id="Trazado_14830" data-name="Trazado 14830" d="M658.24,248.705l-.284,3.1q1.564-3.331,4.532-3.528v8.3a6.016,6.016,0,0,0-2.9.533,2.239,2.239,0,0,0-1.137,1.484,26.619,26.619,0,0,0-.213,4.381v9.312h-7.18V248.705Z" transform="translate(-558.892 -243.516)" fill="#2f8ed0"></path><path id="Trazado_14831" data-name="Trazado 14831" d="M696.6,242.472l-2.916,9.393,3.787,14.191h-6.905l-2.239-10.279-.009,10.279h-7.18V237.283h7.18l.009,12.079,2.239-6.89Z" transform="translate(-575.94 -237.283)" fill="#2f8ed0"></path><path id="Trazado_14832" data-name="Trazado 14832" d="M735.269,256.241h-6.363v-1.28a6.819,6.819,0,0,0-.186-2.07q-.186-.435-.933-.436a1.063,1.063,0,0,0-.906.4,1.973,1.973,0,0,0-.3,1.2,6.074,6.074,0,0,0,.151,1.591,2.516,2.516,0,0,0,.906,1.11,19.673,19.673,0,0,0,3.1,1.76,11.286,11.286,0,0,1,4.1,2.879,6.654,6.654,0,0,1,.977,3.928,9.893,9.893,0,0,1-.746,4.345,4.963,4.963,0,0,1-2.5,2.257,10.206,10.206,0,0,1-4.221.791,11.62,11.62,0,0,1-4.683-.853,5.111,5.111,0,0,1-2.675-2.31,10.251,10.251,0,0,1-.729-4.408v-1.138h6.362V265.5a7.835,7.835,0,0,0,.24,2.471.931.931,0,0,0,.951.569,1.29,1.29,0,0,0,1.066-.382,2.863,2.863,0,0,0,.3-1.608,3.58,3.58,0,0,0-.391-2.116,33.166,33.166,0,0,0-4.177-2.523q-3.164-1.777-3.856-3.226a7.888,7.888,0,0,1-.693-3.439,8.9,8.9,0,0,1,.746-4.167,4.848,4.848,0,0,1,2.532-2.071,10.938,10.938,0,0,1,4.15-.729,11.765,11.765,0,0,1,3.99.6,6.14,6.14,0,0,1,2.524,1.573,4.243,4.243,0,0,1,1.066,1.813,13.2,13.2,0,0,1,.186,2.612Z" transform="translate(-598.013 -243.516)" fill="#2f8ed0"></path></g></g><g id="Grupo_6562" data-name="Grupo 6562" transform="translate(0 0.213)"><g id="Grupo_6561" data-name="Grupo 6561"><path id="Trazado_14833" data-name="Trazado 14833" d="M196.569,237.775h5.3a40.5,40.5,0,0,1,7.171.409,4.937,4.937,0,0,1,3.057,2.088q1.182,1.68,1.182,5.359,0,3.359-.836,4.514t-3.288,1.386a5.626,5.626,0,0,1,2.986,1.475,4.409,4.409,0,0,1,.951,1.7,26.766,26.766,0,0,1,.187,4.257v7.589h-6.949v-9.562a6.6,6.6,0,0,0-.364-2.861q-.364-.551-1.911-.551v12.974h-7.482Zm7.482,4.923v6.4a3.3,3.3,0,0,0,1.769-.346q.507-.347.506-2.249V244.92a2.4,2.4,0,0,0-.489-1.795A2.78,2.78,0,0,0,204.051,242.7Z" transform="translate(-196.569 -237.775)" fill="#92989c"></path><path id="Trazado_14834" data-name="Trazado 14834" d="M247.331,258.333H240.6v-1.582a11.157,11.157,0,0,1,.631-4.221,5.858,5.858,0,0,1,2.533-2.622,11.828,11.828,0,0,1,10.432.151,5.022,5.022,0,0,1,2.222,3.163,49.613,49.613,0,0,1,.373,7.722v11.837H249.8v-2.1a4.378,4.378,0,0,1-4.176,2.528,6.069,6.069,0,0,1-3.457-1.057q-1.573-1.058-1.573-4.63v-1.937q0-2.648.836-3.608a11.755,11.755,0,0,1,4.141-2.239q3.536-1.387,3.786-1.866a4.959,4.959,0,0,0,.249-1.955,6.589,6.589,0,0,0-.275-2.408.946.946,0,0,0-.915-.56q-.729,0-.906.471a9.548,9.548,0,0,0-.178,2.443Zm2.275,3.234a5.328,5.328,0,0,0-2,2.116,8.4,8.4,0,0,0-.276,2.452,7.149,7.149,0,0,0,.24,2.364.939.939,0,0,0,.951.534.882.882,0,0,0,.88-.418,6.766,6.766,0,0,0,.2-2.2Z" transform="translate(-221.525 -244.008)" fill="#92989c"></path><path id="Trazado_14835" data-name="Trazado 14835" d="M291.07,237.775v3.75h-7.393v-3.75Zm0,5.19v23.584h-7.393V242.965Z" transform="translate(-245.946 -237.775)" fill="#92989c"></path><path id="Trazado_14836" data-name="Trazado 14836" d="M322.66,257.48v5.776a24.337,24.337,0,0,1-.32,4.665,6.549,6.549,0,0,1-1.368,2.773,6.183,6.183,0,0,1-2.692,1.9,10.766,10.766,0,0,1-3.777.613,13.453,13.453,0,0,1-4.034-.525A5.5,5.5,0,0,1,307.9,271.1a6.245,6.245,0,0,1-1.306-2.559,19.242,19.242,0,0,1-.391-4.506V258a14.782,14.782,0,0,1,.711-5.136,5.907,5.907,0,0,1,2.559-2.968,9.01,9.01,0,0,1,4.727-1.12,10.8,10.8,0,0,1,4.15.72,6.506,6.506,0,0,1,3.963,4.257A14.815,14.815,0,0,1,322.66,257.48Zm-7.18-1.777a7.838,7.838,0,0,0-.2-2.284.808.808,0,0,0-.836-.471.842.842,0,0,0-.853.471,7.213,7.213,0,0,0-.214,2.284v10.645a6.9,6.9,0,0,0,.214,2.177.97.97,0,0,0,1.679.044,6.028,6.028,0,0,0,.2-1.99Z" transform="translate(-258.714 -244.008)" fill="#92989c"></path><path id="Trazado_14837" data-name="Trazado 14837" d="M357.047,237.775v28.774h-7.393V237.775Z" transform="translate(-283.345 -237.775)" fill="#92989c"></path><path id="Trazado_14838" data-name="Trazado 14838" d="M378.669,258.333h-6.736v-1.582a11.164,11.164,0,0,1,.631-4.221,5.857,5.857,0,0,1,2.533-2.622,11.828,11.828,0,0,1,10.433.151,5.022,5.022,0,0,1,2.222,3.163,49.552,49.552,0,0,1,.373,7.722v11.837h-6.985v-2.1a4.378,4.378,0,0,1-4.176,2.528,6.07,6.07,0,0,1-3.457-1.057q-1.573-1.058-1.573-4.63v-1.937q0-2.648.836-3.608a11.759,11.759,0,0,1,4.141-2.239q3.536-1.387,3.786-1.866a4.959,4.959,0,0,0,.249-1.955,6.6,6.6,0,0,0-.275-2.408.947.947,0,0,0-.916-.56q-.729,0-.906.471a9.559,9.559,0,0,0-.178,2.443Zm2.274,3.234a5.328,5.328,0,0,0-2,2.116,8.4,8.4,0,0,0-.275,2.452,7.152,7.152,0,0,0,.24,2.364.939.939,0,0,0,.951.534.882.882,0,0,0,.88-.418,6.767,6.767,0,0,0,.2-2.2Z" transform="translate(-295.973 -244.008)" fill="#92989c"></path></g></g></g></svg>